# This file uses meters as units for non-parametric coordinates.

mtllib obj_env_wildflower_yellowshort.mtl
g default
v -1.085007 0.000000 0.072083
v 0.646057 0.000000 0.072083
v -8.080452 31.962088 0.072083
v 6.757217 31.962088 0.072083
v -8.080452 17.529018 0.072083
v 6.757217 17.529018 0.072083
v -1.085007 0.000000 -0.072083
v 0.646057 0.000000 -0.072083
v -8.080452 31.962088 -0.072083
v 6.757217 31.962088 -0.072083
v -8.080452 17.529018 -0.072083
v 6.757217 17.529018 -0.072083
vt 0.051913 0.413899
vt 0.168080 0.413899
vt 0.168080 0.529620
vt 0.051913 0.529620
vt 0.106682 0.273354
vt 0.120235 0.273354
vt 0.051913 0.413899
vt 0.051913 0.529620
vt 0.168080 0.529620
vt 0.168080 0.413899
vt 0.106682 0.273354
vt 0.120235 0.273354
vn 0.000000 0.000000 1.000000
vn 0.000000 0.000000 1.000000
vn 0.000000 0.000000 1.000000
vn 0.000000 0.000000 1.000000
vn 0.000000 0.000000 1.000000
vn 0.000000 0.000000 1.000000
vn 0.000000 0.000000 -1.000000
vn 0.000000 0.000000 -1.000000
vn 0.000000 0.000000 -1.000000
vn 0.000000 0.000000 -1.000000
vn 0.000000 0.000000 -1.000000
vn 0.000000 0.000000 -1.000000
s 1
g obj_env_wildflower_yellowshort
usemtl lambert2SG
f 5/1/1 6/2/2 4/3/3 3/4/4
f 1/5/5 2/6/6 6/2/2 5/1/1
s 2
f 11/7/7 9/8/8 10/9/9 12/10/10
f 7/11/11 11/7/7 12/10/10 8/12/12
