# This file uses meters as units for non-parametric coordinates.

mtllib obj_env_wildflower_redsingle.mtl
g default
v -4.505497 0.000000 0.000000
v 0.000000 0.000000 0.000000
v -8.483559 42.651344 0.000000
v 3.481499 42.651344 0.000000
v -6.695602 23.391350 0.000000
v 4.007370 23.391350 0.000000
v -4.505497 0.000000 -0.144165
v 0.000000 0.000000 -0.144165
v -8.483559 42.651344 -0.144165
v 3.481499 42.651344 -0.144165
v -6.695602 23.391350 -0.144165
v 4.007370 23.391350 -0.144165
vt 0.619169 0.830413
vt 0.704194 0.830413
vt 0.700270 0.981718
vt 0.607122 0.981718
vt 0.639579 0.646652
vt 0.675475 0.646652
vt 0.619169 0.830413
vt 0.607122 0.981718
vt 0.700270 0.981718
vt 0.704194 0.830413
vt 0.639579 0.646652
vt 0.675475 0.646652
vn 0.000000 0.000000 1.000000
vn 0.000000 0.000000 1.000000
vn 0.000000 0.000000 1.000000
vn 0.000000 0.000000 1.000000
vn 0.000000 0.000000 1.000000
vn 0.000000 0.000000 1.000000
vn 0.000000 0.000000 -1.000000
vn 0.000000 0.000000 -1.000000
vn 0.000000 0.000000 -1.000000
vn 0.000000 0.000000 -1.000000
vn 0.000000 0.000000 -1.000000
vn 0.000000 0.000000 -1.000000
s 1
g obj_env_wilflower_redsingle
usemtl lambert2SG
f 5/1/1 6/2/2 4/3/3 3/4/4
f 1/5/5 2/6/6 6/2/2 5/1/1
s 2
f 11/7/7 9/8/8 10/9/9 12/10/10
f 7/11/11 11/7/7 12/10/10 8/12/12
