# This file uses meters as units for non-parametric coordinates.

mtllib obj_env_wildflower_redgrop.mtl
g default
v -17.558508 0.000000 0.000000
v 14.691465 0.000000 0.000000
v -17.558508 38.819107 0.000000
v 14.691465 38.819107 0.000000
v -17.558512 12.680305 0.000000
v 14.691469 12.680305 0.000000
v -8.878681 38.819107 0.000000
v -8.878680 12.680305 0.000000
v -8.878681 0.000000 0.000000
v 8.750544 38.819107 0.000000
v 8.750542 12.680305 0.000000
v 8.750544 0.000000 0.000000
v 0.000000 38.819107 0.000000
v -0.000002 12.680305 0.000000
v 0.000000 0.000000 0.000000
v -17.558508 0.000000 -0.144165
v 14.691465 0.000000 -0.144165
v -17.558508 38.819107 -0.144165
v 14.691465 38.819107 -0.144165
v -17.558512 12.680305 -0.144165
v 14.691469 12.680305 -0.144165
v -8.878681 38.819107 -0.144165
v -8.878680 12.680305 -0.144165
v -8.878681 0.000000 -0.144165
v 8.750544 38.819107 -0.144165
v 8.750542 12.680305 -0.144165
v 8.750544 0.000000 -0.144165
v 0.000000 38.819107 -0.144165
v -0.000002 12.680305 -0.144165
v 0.000000 0.000000 -0.144165
vt 0.924873 0.763161
vt 0.973320 0.763161
vt 0.973320 0.950758
vt 0.924873 0.950758
vt 0.924873 0.647551
vt 0.973320 0.647551
vt 0.717298 0.763161
vt 0.784461 0.763161
vt 0.784461 0.950758
vt 0.717298 0.950758
vt 0.717298 0.647551
vt 0.784461 0.647551
vt 0.859583 0.950758
vt 0.859583 0.763161
vt 0.859583 0.647551
vt 0.924873 0.763161
vt 0.924873 0.950758
vt 0.973320 0.950758
vt 0.973320 0.763161
vt 0.973320 0.647551
vt 0.924873 0.647551
vt 0.717298 0.763161
vt 0.717298 0.950758
vt 0.784461 0.950758
vt 0.784461 0.763161
vt 0.784461 0.647551
vt 0.717298 0.647551
vt 0.859583 0.950758
vt 0.859583 0.763161
vt 0.859583 0.647551
vn 0.000000 0.000000 1.000000
vn 0.000000 0.000000 1.000000
vn 0.000000 0.000000 1.000000
vn 0.000000 0.000000 1.000000
vn 0.000000 0.000000 1.000000
vn 0.000000 0.000000 1.000000
vn 0.000000 0.000000 1.000000
vn 0.000000 0.000000 1.000000
vn 0.000000 0.000000 1.000000
vn 0.000000 0.000000 1.000000
vn 0.000000 0.000000 1.000000
vn 0.000000 0.000000 1.000000
vn 0.000000 0.000000 1.000000
vn 0.000000 0.000000 1.000000
vn 0.000000 0.000000 1.000000
vn 0.000000 0.000000 -1.000000
vn 0.000000 0.000000 -1.000000
vn 0.000000 0.000000 -1.000000
vn 0.000000 0.000000 -1.000000
vn 0.000000 0.000000 -1.000000
vn 0.000000 0.000000 -1.000000
vn 0.000000 0.000000 -1.000000
vn 0.000000 0.000000 -1.000000
vn 0.000000 0.000000 -1.000000
vn 0.000000 0.000000 -1.000000
vn 0.000000 0.000000 -1.000000
vn 0.000000 0.000000 -1.000000
vn 0.000000 0.000000 -1.000000
vn 0.000000 0.000000 -1.000000
vn 0.000000 0.000000 -1.000000
s 1
g obj_env_wildflower_redgroup
usemtl lambert2SG
f 11/1/1 6/2/2 4/3/3 10/4/4
f 2/6/5 6/2/2 11/1/1 12/5/6
f 5/7/7 8/8/8 7/9/9 3/10/10
f 8/8/8 5/7/7 1/11/11 9/12/12
f 13/13/13 14/14/14 11/1/1 10/4/4
f 12/5/6 11/1/1 14/14/14 15/15/15
f 8/8/8 14/14/14 13/13/13 7/9/9
f 14/14/14 8/8/8 9/12/12 15/15/15
s 3
f 26/16/16 25/17/17 19/18/18 21/19/19
f 17/20/20 27/21/21 26/16/16 21/19/19
f 20/22/22 18/23/23 22/24/24 23/25/25
f 23/25/25 24/26/26 16/27/27 20/22/22
f 28/28/28 25/17/17 26/16/16 29/29/29
f 27/21/21 30/30/30 29/29/29 26/16/16
f 23/25/25 22/24/24 28/28/28 29/29/29
f 29/29/29 30/30/30 24/26/26 23/25/25
